<svg xmlns="http://www.w3.org/2000/svg" width="99.501" height="43.891" viewBox="0 0 99.501 43.891">
  <g id="Groupe_6" data-name="Groupe 6" transform="translate(-591.979 -218.953)">
    <path id="Tracé_1" data-name="Tracé 1" d="M592.905,313.563v4.466h-.926V307.064h3.735a3.937,3.937,0,0,1,2.7.874,3.433,3.433,0,0,1,.038,4.786,4.05,4.05,0,0,1-2.76.84Zm0-.783h2.809a2.961,2.961,0,0,0,2.056-.641,2.287,2.287,0,0,0,.708-1.787,2.394,2.394,0,0,0-.7-1.814,2.822,2.822,0,0,0-2-.69h-2.869Z" transform="translate(0 -73.879)" fill="#b6b498"/>
    <path id="Tracé_2" data-name="Tracé 2" d="M671.012,331.869a4.259,4.259,0,0,1-.173-1.137,3.141,3.141,0,0,1-1.209.953,3.7,3.7,0,0,1-1.555.335,2.731,2.731,0,0,1-1.9-.655,2.134,2.134,0,0,1-.727-1.657,2.181,2.181,0,0,1,.99-1.883,4.758,4.758,0,0,1,2.76-.693h1.634v-.926a1.785,1.785,0,0,0-.538-1.374,2.226,2.226,0,0,0-1.57-.5,2.458,2.458,0,0,0-1.559.482,1.432,1.432,0,0,0-.617,1.16l-.9-.008a2.1,2.1,0,0,1,.9-1.683,3.48,3.48,0,0,1,2.222-.712,3.174,3.174,0,0,1,2.15.682,2.445,2.445,0,0,1,.81,1.9v3.856a4.782,4.782,0,0,0,.249,1.77v.09Zm-2.832-.648a3.025,3.025,0,0,0,1.615-.437,2.569,2.569,0,0,0,1.036-1.167v-1.792H669.22a4.037,4.037,0,0,0-2.109.493,1.48,1.48,0,0,0-.761,1.314,1.457,1.457,0,0,0,.508,1.137A1.915,1.915,0,0,0,668.181,331.221Z" transform="translate(-61.602 -87.719)" fill="#b6b498"/>
    <path id="Tracé_3" data-name="Tracé 3" d="M735.336,331.356l2.38-6.853h.971l-3.479,9.534-.181.422a2.189,2.189,0,0,1-2.071,1.484,2.528,2.528,0,0,1-.693-.105l-.008-.746.467.045a1.669,1.669,0,0,0,1.073-.328,2.486,2.486,0,0,0,.7-1.126l.4-1.1-3.073-8.081h.987Z" transform="translate(-117.253 -88.502)" fill="#b6b498"/>
    <path id="Tracé_4" data-name="Tracé 4" d="M804.8,329.8a1.284,1.284,0,0,0-.538-1.077,4.154,4.154,0,0,0-1.623-.636,7.338,7.338,0,0,1-1.683-.527,2.243,2.243,0,0,1-.889-.727,1.814,1.814,0,0,1-.29-1.039,1.939,1.939,0,0,1,.806-1.593,3.255,3.255,0,0,1,2.064-.629,3.35,3.35,0,0,1,2.188.674,2.163,2.163,0,0,1,.825,1.758h-.9a1.459,1.459,0,0,0-.6-1.19,2.7,2.7,0,0,0-2.937-.079,1.22,1.22,0,0,0-.538,1.028,1.111,1.111,0,0,0,.448.945,4.74,4.74,0,0,0,1.634.614,7.684,7.684,0,0,1,1.777.595,2.3,2.3,0,0,1,.877.761,2.091,2.091,0,0,1-.546,2.726,3.556,3.556,0,0,1-2.173.618,3.65,3.65,0,0,1-2.308-.689,2.121,2.121,0,0,1-.885-1.743h.9a1.568,1.568,0,0,0,.666,1.231,2.725,2.725,0,0,0,1.623.44,2.561,2.561,0,0,0,1.521-.414A1.243,1.243,0,0,0,804.8,329.8Z" transform="translate(-174.007 -87.719)" fill="#b6b498"/>
    <path id="Tracé_5" data-name="Tracé 5" d="M872.468,331.869a4.258,4.258,0,0,1-.173-1.137,3.143,3.143,0,0,1-1.209.953,3.7,3.7,0,0,1-1.555.335,2.731,2.731,0,0,1-1.9-.655,2.134,2.134,0,0,1-.727-1.657,2.181,2.181,0,0,1,.99-1.883,4.759,4.759,0,0,1,2.76-.693h1.634v-.926a1.784,1.784,0,0,0-.539-1.374,2.226,2.226,0,0,0-1.57-.5,2.458,2.458,0,0,0-1.559.482,1.432,1.432,0,0,0-.617,1.16l-.9-.008a2.1,2.1,0,0,1,.9-1.683,3.48,3.48,0,0,1,2.221-.712,3.174,3.174,0,0,1,2.15.682,2.445,2.445,0,0,1,.81,1.9v3.856a4.782,4.782,0,0,0,.249,1.77v.09Zm-2.832-.648a3.025,3.025,0,0,0,1.615-.437,2.571,2.571,0,0,0,1.036-1.167v-1.792h-1.612a4.037,4.037,0,0,0-2.109.493,1.48,1.48,0,0,0-.761,1.314,1.457,1.457,0,0,0,.508,1.137A1.915,1.915,0,0,0,869.637,331.221Z" transform="translate(-230.519 -87.719)" fill="#b6b498"/>
    <path id="Tracé_6" data-name="Tracé 6" d="M937.526,327.72a4.905,4.905,0,0,1,.847-3.031,2.733,2.733,0,0,1,2.3-1.118A2.834,2.834,0,0,1,943.2,324.9l.045-1.175h.844V331.7a3.451,3.451,0,0,1-.881,2.493,3.152,3.152,0,0,1-2.387.919,3.627,3.627,0,0,1-1.623-.38,3.153,3.153,0,0,1-1.216-1.013l.5-.542a2.855,2.855,0,0,0,2.274,1.175,2.313,2.313,0,0,0,1.762-.667,2.656,2.656,0,0,0,.655-1.849v-1.024a2.913,2.913,0,0,1-2.523,1.2,2.717,2.717,0,0,1-2.274-1.13,4.922,4.922,0,0,1-.859-3.05Zm.911.158a4.249,4.249,0,0,0,.625,2.459,2.022,2.022,0,0,0,1.762.9,2.409,2.409,0,0,0,2.357-1.491v-3.788a2.571,2.571,0,0,0-.911-1.194,2.458,2.458,0,0,0-1.431-.41,2.046,2.046,0,0,0-1.77.892A4.541,4.541,0,0,0,938.437,327.878Z" transform="translate(-289.735 -87.719)" fill="#b6b498"/>
    <g id="Groupe_4" data-name="Groupe 4" transform="translate(655.27 218.953)">
      <path id="Tracé_7" data-name="Tracé 7" d="M1016.4,290.606a3.594,3.594,0,0,1-.871-.108l-.159-.039,0-.163a3.571,3.571,0,0,1,1.413-2.758h0a3.573,3.573,0,0,1,3.036-.626l.158.04,0,.163a3.586,3.586,0,0,1-3.578,3.491Zm-.611-.465a3.178,3.178,0,0,0,3.774-2.871,3.176,3.176,0,0,0-2.53.591h0A3.164,3.164,0,0,0,1015.789,290.141Z" transform="translate(-1010.276 -275.846)" fill="#afb963"/>
      <path id="Tracé_8" data-name="Tracé 8" d="M1015.237,221.091a1.927,1.927,0,0,1-.467-.057l-.161-.039,0-.166a1.925,1.925,0,0,1,2.39-1.817l.161.039,0,.166a1.926,1.926,0,0,1-1.923,1.874Zm-.2-.424a1.521,1.521,0,0,0,1.11-.3.621.621,0,1,0-.528-.694h0A1.5,1.5,0,0,0,1015.041,220.666Z" transform="translate(-1009.638 -218.953)" fill="#afb963"/>
      <path id="Tracé_9" data-name="Tracé 9" d="M988.1,305.455a4.275,4.275,0,0,1-4.266-4.16l-.006-.195.189-.046a4.25,4.25,0,0,1,3.619.744h0a4.26,4.26,0,0,1,1.685,3.289l.006.194-.189.047A4.336,4.336,0,0,1,988.1,305.455Zm-3.772-3.975a3.79,3.79,0,0,0,4.5,3.422,3.775,3.775,0,0,0-1.484-2.718h0A3.77,3.77,0,0,0,984.331,301.48Z" transform="translate(-983.831 -287.685)" fill="#afb963"/>
      <path id="Tracé_10" data-name="Tracé 10" d="M1001.45,252.483a2.289,2.289,0,0,1-2.285-2.228l-.005-.174.169-.041a2.27,2.27,0,0,1,1.939.4h0a2.282,2.282,0,0,1,.9,1.761l.005.174-.169.041A2.279,2.279,0,0,1,1001.45,252.483Zm-1.84-2.059a1.857,1.857,0,1,0,1.4.359h0A1.845,1.845,0,0,0,999.61,250.424Z" transform="translate(-996.684 -244.961)" fill="#afb963"/>
      <rect id="Rectangle_94" data-name="Rectangle 94" width="0.642" height="23.436" transform="translate(4.971 1.893)" fill="#afb963"/>
    </g>
    <path id="Tracé_11" data-name="Tracé 11" d="M1055.058,329.8a1.284,1.284,0,0,0-.539-1.077,4.153,4.153,0,0,0-1.623-.636,7.334,7.334,0,0,1-1.683-.527,2.243,2.243,0,0,1-.889-.727,1.814,1.814,0,0,1-.29-1.039,1.939,1.939,0,0,1,.806-1.593,3.256,3.256,0,0,1,2.064-.629,3.35,3.35,0,0,1,2.188.674,2.163,2.163,0,0,1,.825,1.758h-.9a1.459,1.459,0,0,0-.6-1.19,2.7,2.7,0,0,0-2.937-.079,1.22,1.22,0,0,0-.539,1.028,1.111,1.111,0,0,0,.448.945,4.739,4.739,0,0,0,1.634.614,7.684,7.684,0,0,1,1.777.595,2.3,2.3,0,0,1,.877.761,2.092,2.092,0,0,1-.546,2.726,3.556,3.556,0,0,1-2.173.618,3.65,3.65,0,0,1-2.308-.689,2.121,2.121,0,0,1-.885-1.743h.9a1.568,1.568,0,0,0,.666,1.231,2.725,2.725,0,0,0,1.623.44,2.561,2.561,0,0,0,1.521-.414A1.243,1.243,0,0,0,1055.058,329.8Z" transform="translate(-383.845 -87.719)" fill="#b6b498"/>
    <path id="Tracé_12" data-name="Tracé 12" d="M1115.981,311.587v2.086h1.687v.738h-1.687v5.436a1.7,1.7,0,0,0,.245,1.01.949.949,0,0,0,.817.331,5.6,5.6,0,0,0,.73-.075l.038.732a2.956,2.956,0,0,1-.964.127,1.607,1.607,0,0,1-1.348-.539,2.534,2.534,0,0,1-.422-1.585v-5.437h-1.5v-.738h1.5v-2.086Z" transform="translate(-437.353 -77.672)" fill="#b6b498"/>
    <path id="Tracé_13" data-name="Tracé 13" d="M1170.13,332.02a3.538,3.538,0,0,1-1.879-.512,3.49,3.49,0,0,1-1.306-1.427,4.448,4.448,0,0,1-.467-2.052V327.7a4.8,4.8,0,0,1,.456-2.116,3.624,3.624,0,0,1,1.269-1.48,3.13,3.13,0,0,1,1.762-.539,2.943,2.943,0,0,1,2.354,1.013,4.109,4.109,0,0,1,.87,2.768v.5h-5.814v.173a3.412,3.412,0,0,0,.795,2.308,2.527,2.527,0,0,0,2,.922,2.936,2.936,0,0,0,1.276-.263,2.831,2.831,0,0,0,1.005-.844l.565.429A3.288,3.288,0,0,1,1170.13,332.02Zm-.166-7.682a2.254,2.254,0,0,0-1.713.746,3.445,3.445,0,0,0-.847,2h4.888v-.1a2.991,2.991,0,0,0-.67-1.913A2.078,2.078,0,0,0,1169.964,324.338Z" transform="translate(-481.707 -87.719)" fill="#b6b498"/>
    <g id="Groupe_5" data-name="Groupe 5" transform="translate(591.979 250.26)">
      <path id="Tracé_14" data-name="Tracé 14" d="M591.979,412.784h3.281v9.774h5.253v2.653h-8.534Z" transform="translate(-591.979 -412.784)" fill="#4b5922"/>
      <path id="Tracé_15" data-name="Tracé 15" d="M677.183,422.645h-5.514l-1.1,2.566h-3.282l5.813-12.427h2.583l5.83,12.427h-3.23Zm-1.064-2.461-1.694-3.928-1.693,3.928Z" transform="translate(-655.123 -412.784)" fill="#4b5922"/>
      <path id="Tracé_16" data-name="Tracé 16" d="M781.412,412.784h8.674v2.566H784.64v2.268h5.1v2.549h-5.1v5.044h-3.228Z" transform="translate(-750.815 -412.784)" fill="#4b5922"/>
      <path id="Tracé_17" data-name="Tracé 17" d="M866.127,412.784h3.281v9.774h5.253v2.653h-8.534Z" transform="translate(-821.847 -412.784)" fill="#4b5922"/>
      <path id="Tracé_18" data-name="Tracé 18" d="M950.308,412.784h8.866V415.3H953.5v2.338h5.306v2.514H953.5V422.7h5.673v2.513h-8.866Z" transform="translate(-892.432 -412.784)" fill="#4b5922"/>
      <path id="Tracé_19" data-name="Tracé 19" d="M1038.258,424a5.387,5.387,0,0,1-1.4-4.023v-7.191h3.193V420.1a3.111,3.111,0,0,0,.6,2.059,2.117,2.117,0,0,0,1.719.717,2.064,2.064,0,0,0,1.693-.725,3.158,3.158,0,0,0,.593-2.05v-7.313h3.228v7.191a5.341,5.341,0,0,1-1.422,4.005,6.8,6.8,0,0,1-8.212.018Z" transform="translate(-965.006 -412.784)" fill="#4b5922"/>
      <path id="Tracé_20" data-name="Tracé 20" d="M1150.862,425.211h-3.473l-1.607-4.136a1.244,1.244,0,0,0-1.308-.7h-1.187v4.835h-3.228V412.784h5.776a5.1,5.1,0,0,1,3.387.969,3.44,3.44,0,0,1,1.134,2.766,3.569,3.569,0,0,1-.672,2.172,3.607,3.607,0,0,1-1.894,1.3,1.938,1.938,0,0,1,.943.488,2.615,2.615,0,0,1,.663,1.03Zm-4.033-7.6a1.133,1.133,0,0,0,.472-1,1.155,1.155,0,0,0-.463-1.03,2.807,2.807,0,0,0-1.527-.315h-2.06v2.67h2.06A2.756,2.756,0,0,0,1146.829,417.61Z" transform="translate(-1051.534 -412.784)" fill="#4b5922"/>
    </g>
  </g>
</svg>
